<svg width="27" height="89" viewBox="0 0 27 89" fill="none" xmlns="http://www.w3.org/2000/svg">
<path d="M26.6359 16.3184C26.2141 10.4107 24.9487 4.50294 20.5899 0.142456C20.0275 0.564438 19.3245 1.12708 18.9026 1.54906C14.6845 5.76888 17.0748 13.0832 16.653 14.3492C16.2311 15.4745 16.3717 32.7757 16.3717 32.7757C16.3717 32.7757 13.7002 40.934 12.013 47.8264C10.3257 54.7188 8.49784 64.1431 8.49784 64.1431C8.49784 64.1431 7.65421 65.2683 6.81058 65.831C5.96694 66.5343 0.20212 75.1146 0.0615149 75.3959C-0.0790906 75.6772 -0.0790905 76.9432 1.18636 76.6619C2.45181 76.3805 4.9827 73.8486 4.9827 73.8486C4.9827 73.8486 4.70149 78.6311 4.9827 82.2883C5.26392 85.9455 6.95118 87.0707 7.5136 87.774C8.07602 88.4773 9.48208 88.0554 10.4663 87.4927C11.4506 86.9301 12.013 85.1015 12.013 85.1015C12.013 85.1015 12.5754 85.3828 13.419 85.1015C14.2627 84.8202 14.8251 79.4751 15.3875 76.2399C15.9499 73.0047 15.3875 66.9563 15.3875 66.9563C15.3875 66.9563 19.1839 58.5166 21.4335 54.4375C23.6832 50.499 25.2299 39.1055 25.7923 37.6989C25.9329 36.5736 27.7608 24.6174 26.6359 16.3184Z" fill="black"/>
</svg>
