<svg width="37" height="84" viewBox="0 0 37 84" fill="none" xmlns="http://www.w3.org/2000/svg">
<path d="M36.9803 47.2753C36.9425 47.1403 34.5591 43.5527 34.2186 43.2827C33.8592 43.0126 33.5187 42.569 33.5187 42.569C33.5187 42.569 32.781 38.6342 32.0621 35.7603C31.3622 32.8863 30.3029 29.5302 30.3029 29.5302C30.3029 29.5302 30.3408 22.3164 30.1705 21.8342C30.0003 21.3327 30.965 18.2466 29.2436 16.5107C29.0166 16.2792 28.7707 16.0863 28.5248 15.8935C28.5248 15.8935 25.7252 14.9098 24.8362 14.659C23.9282 14.4083 21.6393 12.9809 21.3934 12.653C21.1475 12.3251 21.3934 10.2227 21.3934 10.2227L21.8853 9.1426C21.8853 9.1426 22.3392 9.27761 22.5473 9.1426C22.7554 9.00758 23.6066 6.96303 23.285 6.67371C22.9635 6.38439 22.623 6.38439 22.623 6.38439C22.623 6.38439 23.077 3.41401 22.169 1.94811C21.261 0.462916 18.4993 0 18.4993 0C18.4993 0 15.7375 0.462916 14.8295 1.92882C13.9216 3.39472 14.3755 6.3651 14.3755 6.3651C14.3755 6.3651 14.054 6.3651 13.7135 6.65442C13.3919 6.94374 14.2431 9.00758 14.4512 9.12331C14.6593 9.25832 15.1133 9.12331 15.1133 9.12331L15.6051 10.2034C15.6051 10.2034 15.851 12.3059 15.6051 12.6338C15.3592 12.9617 13.0514 14.389 12.1624 14.6397C11.2544 14.8905 8.4737 15.8742 8.4737 15.8742C8.22779 16.0478 7.98188 16.2599 7.75489 16.4914C6.03352 18.2466 7.01716 21.3327 6.828 21.8149C6.65775 22.3164 6.69558 29.5109 6.69558 29.5109C6.69558 29.5109 5.63628 32.8671 4.93638 35.741C4.23648 38.6149 3.47984 42.5497 3.47984 42.5497C3.47984 42.5497 3.12043 42.9933 2.77994 43.2634C2.43945 43.5334 0.0560133 47.121 0.018181 47.256C-0.0196513 47.391 -0.0196513 47.8732 0.510001 47.7961C1.03965 47.7189 2.04221 46.6388 2.04221 46.6388C2.04221 46.6388 1.9098 48.6062 2.04221 50.13C2.17462 51.6537 2.83669 52.1359 3.04477 52.406C3.27176 52.676 3.83924 52.541 4.23648 52.3095C4.63372 52.0781 4.89855 51.3258 4.89855 51.3258C4.89855 51.3258 5.12554 51.4608 5.46603 51.3258C5.82544 51.1908 6.03352 48.992 6.26051 47.6611C6.48751 46.3109 6.26051 43.8034 6.26051 43.8034C6.26051 43.8034 7.79272 40.2737 8.71961 38.6149C9.6465 36.9561 10.3086 32.2113 10.4788 31.6326C10.5356 31.4397 10.6491 30.8225 10.7626 29.9545L11.2355 35.3745L10.7247 36.6282C10.6301 36.8983 10.5356 37.2648 10.4031 37.7277C9.93025 39.5408 10.3086 47.4875 10.4031 49.2234C10.4977 50.9401 11.9164 55.8586 12.2569 57.7102C12.5974 59.5619 12.8244 60.4877 12.7488 61.915C12.6542 63.3231 12.0299 63.7667 12.1245 66.332C12.2191 68.8974 14.4323 76.8441 14.489 77.2491C14.5269 77.6542 14.5836 79.5444 14.4512 79.8916C14.3188 80.2388 12.9757 82.1869 12.8055 82.4569C12.6353 82.727 12.7109 83.0742 13.146 83.2478C13.5811 83.4214 14.3188 83.73 14.7917 83.7685C15.2646 83.8071 15.8321 83.4985 15.8321 83.4985C15.8321 83.4985 16.3996 84.2893 17.0049 83.8071C17.6102 83.3249 17.3454 81.0296 17.3454 81.0296C17.3454 81.0296 17.5535 79.8338 17.7615 78.9079C17.9696 77.9821 17.1562 75.8411 17.3832 71.5206C17.6102 67.2964 16.986 63.516 16.986 63.516C16.986 63.516 17.2508 62.5901 17.6859 60.642C18.1209 58.6939 18.5182 48.1433 18.5182 48.1433V47.6611V48.1433C18.5182 48.1433 18.9154 58.7132 19.3505 60.642C19.7856 62.5901 20.0504 63.516 20.0504 63.516C20.0504 63.516 19.4262 67.2772 19.6531 71.5206C19.8801 75.8218 19.0857 77.9628 19.2748 78.9079C19.4829 79.8338 19.691 81.0296 19.691 81.0296C19.691 81.0296 19.4262 83.3249 20.0315 83.8071C20.6368 84.2893 21.2043 83.4985 21.2043 83.4985C21.2043 83.4985 21.7718 83.8071 22.2447 83.7685C22.7176 83.73 23.4553 83.4214 23.8904 83.2478C24.3254 83.0742 24.4011 82.727 24.2309 82.4569C24.0606 82.1869 22.7176 80.2388 22.5852 79.8916C22.4527 79.5444 22.4906 77.6349 22.5473 77.2491C22.5852 76.8441 24.8173 68.8974 24.9118 66.332C25.0064 63.7667 24.3633 63.3231 24.2876 61.915C24.193 60.507 24.4389 59.5812 24.7794 57.7102C25.1199 55.8586 26.5386 50.9594 26.6332 49.2234C26.7278 47.5068 27.1061 39.5408 26.6332 37.7277C26.5008 37.2648 26.4062 36.8983 26.3116 36.6282L25.8009 35.3745L26.2738 29.9545C26.3873 30.8225 26.5008 31.4397 26.5575 31.6326C26.7278 32.2113 27.3899 36.9561 28.3167 38.6149C29.2436 40.2737 30.7758 43.8034 30.7758 43.8034C30.7758 43.8034 30.5489 46.3109 30.7758 47.6611C31.0028 49.0113 31.2109 51.1908 31.5703 51.3258C31.9297 51.4608 32.1378 51.3258 32.1378 51.3258C32.1378 51.3258 32.4026 52.0781 32.7999 52.3095C33.1971 52.541 33.7646 52.676 33.9916 52.406C34.2186 52.1359 34.8617 51.6537 34.9941 50.13C35.1266 48.6062 34.9941 46.6388 34.9941 46.6388C34.9941 46.6388 35.9967 47.7189 36.5264 47.7961C37.0182 47.9118 37.0182 47.4103 36.9803 47.2753Z" fill="#929292"/>
</svg>
