<svg width="50" height="111" viewBox="0 0 50 111" fill="none" xmlns="http://www.w3.org/2000/svg">
<path d="M49.974 62.471C49.9229 62.2925 46.702 57.5518 46.2419 57.1949C45.7562 56.8381 45.2961 56.2519 45.2961 56.2519C45.2961 56.2519 44.2992 51.0524 43.3278 47.2546C42.382 43.4569 40.9505 39.022 40.9505 39.022C40.9505 39.022 41.0016 29.4896 40.7716 28.8524C40.5415 28.1897 41.8452 24.1116 39.519 21.8177C39.2123 21.5118 38.88 21.2569 38.5476 21.0021C38.5476 21.0021 34.7644 19.7022 33.563 19.3708C32.336 19.0395 29.2429 17.1534 28.9106 16.7201C28.5783 16.2868 28.9106 13.5086 28.9106 13.5086L29.5753 12.0813C29.5753 12.0813 30.1887 12.2597 30.4699 12.0813C30.7511 11.9029 31.9014 9.20115 31.4669 8.81883C31.0323 8.43651 30.5722 8.43651 30.5722 8.43651C30.5722 8.43651 31.1857 4.51137 29.9587 2.57428C28.7317 0.611711 24.9996 0 24.9996 0C24.9996 0 21.2675 0.611711 20.0405 2.54879C18.8135 4.48588 19.427 8.41102 19.427 8.41102C19.427 8.41102 18.9924 8.41102 18.5323 8.79334C18.0977 9.17566 19.2481 11.9029 19.5292 12.0558C19.8104 12.2342 20.4239 12.0558 20.4239 12.0558L21.0885 13.4831C21.0885 13.4831 21.4209 16.2613 21.0885 16.6946C20.7562 17.1279 17.6376 19.014 16.4362 19.3454C15.2092 19.6767 11.4515 20.9766 11.4515 20.9766C11.1192 21.206 10.7869 21.4863 10.4802 21.7922C8.15398 24.1116 9.48323 28.1897 9.2276 28.8269C8.99754 29.4896 9.04867 38.9966 9.04867 38.9966C9.04867 38.9966 7.61717 43.4315 6.67137 47.2292C5.72556 51.0269 4.70306 56.2264 4.70306 56.2264C4.70306 56.2264 4.21738 56.8126 3.75726 57.1695C3.29713 57.5263 0.0762743 62.267 0.0251496 62.4455C-0.0259752 62.6239 -0.0259752 63.2611 0.689771 63.1591C1.40552 63.0572 2.76032 61.6299 2.76032 61.6299C2.76032 61.6299 2.58139 64.2296 2.76032 66.2432C2.93926 68.2567 3.83394 68.8939 4.11513 69.2507C4.42188 69.6076 5.18875 69.4292 5.72556 69.1233C6.26237 68.8175 6.62024 67.8234 6.62024 67.8234C6.62024 67.8234 6.92699 68.0018 7.38711 67.8234C7.8728 67.645 8.15398 64.7394 8.46073 62.9807C8.76748 61.1966 8.46073 57.8831 8.46073 57.8831C8.46073 57.8831 10.5313 53.2188 11.7838 51.0269C13.0364 48.8349 13.9311 42.5649 14.1611 41.8002C14.2378 41.5453 14.3912 40.7297 14.5446 39.5828L15.1836 46.7449L14.4935 48.4016C14.3656 48.7584 14.2378 49.2427 14.0589 49.8544C13.4198 52.2503 13.9311 62.7513 14.0589 65.0452C14.1867 67.3137 16.1039 73.8131 16.564 76.2599C17.0241 78.7068 17.3309 79.9302 17.2286 81.8163C17.1008 83.6769 16.2573 84.2631 16.3851 87.653C16.5129 91.0429 19.5037 101.544 19.5804 102.079C19.6315 102.614 19.7082 105.112 19.5292 105.571C19.3503 106.03 17.5354 108.604 17.3053 108.961C17.0753 109.318 17.1775 109.777 17.7654 110.006C18.3534 110.235 19.3503 110.643 19.9894 110.694C20.6284 110.745 21.3953 110.337 21.3953 110.337C21.3953 110.337 22.1622 111.382 22.9802 110.745C23.7982 110.108 23.4403 107.075 23.4403 107.075C23.4403 107.075 23.7215 105.495 24.0027 104.271C24.2838 103.048 23.1847 100.219 23.4914 94.5093C23.7982 88.9274 22.9546 83.9318 22.9546 83.9318C22.9546 83.9318 23.3125 82.7084 23.9004 80.1341C24.4883 77.5598 25.0252 63.6179 25.0252 63.6179V62.9807V63.6179C25.0252 63.6179 25.562 77.5853 26.1499 80.1341C26.7378 82.7084 27.0957 83.9318 27.0957 83.9318C27.0957 83.9318 26.2521 88.9019 26.5589 94.5093C26.8656 100.193 25.792 103.022 26.0476 104.271C26.3288 105.495 26.61 107.075 26.61 107.075C26.61 107.075 26.2521 110.108 27.0701 110.745C27.8881 111.382 28.655 110.337 28.655 110.337C28.655 110.337 29.4219 110.745 30.0609 110.694C30.7 110.643 31.6969 110.235 32.2849 110.006C32.8728 109.777 32.975 109.318 32.745 108.961C32.5149 108.604 30.7 106.03 30.5211 105.571C30.3421 105.112 30.3932 102.589 30.4699 102.079C30.5211 101.544 33.5374 91.0429 33.6652 87.653C33.793 84.2631 32.9239 83.6769 32.8217 81.8163C32.6939 79.9557 33.0262 78.7323 33.4863 76.2599C33.9464 73.8131 35.8636 67.3391 35.9914 65.0452C36.1192 62.7768 36.6305 52.2503 35.9914 49.8544C35.8125 49.2427 35.6847 48.7584 35.5568 48.4016L34.8667 46.7449L35.5057 39.5828C35.6591 40.7297 35.8125 41.5453 35.8892 41.8002C36.1192 42.5649 37.0139 48.8349 38.2665 51.0269C39.519 53.2188 41.5896 57.8831 41.5896 57.8831C41.5896 57.8831 41.2828 61.1966 41.5896 62.9807C41.8963 64.7649 42.1775 67.645 42.6632 67.8234C43.1489 68.0018 43.4301 67.8234 43.4301 67.8234C43.4301 67.8234 43.7879 68.8175 44.3247 69.1233C44.8616 69.4292 45.6284 69.6076 45.9352 69.2507C46.2419 68.8939 47.111 68.2567 47.29 66.2432C47.4689 64.2296 47.29 61.6299 47.29 61.6299C47.29 61.6299 48.6448 63.0572 49.3605 63.1591C50.0252 63.3121 50.0252 62.6494 49.974 62.471Z" fill="black"/>
</svg>
