<svg width="30" height="38" viewBox="0 0 30 38" fill="none" xmlns="http://www.w3.org/2000/svg">
<path d="M29.7658 20.3571C28.7716 19.472 27.719 19.472 27.719 19.472C27.719 19.472 29.1225 10.3851 26.3155 5.90062C23.5669 1.41615 14.9704 0 14.9704 0C14.9704 0 6.43242 1.41615 3.68388 5.90062C0.876862 10.3851 2.28037 19.472 2.28037 19.472C2.28037 19.472 1.28622 19.472 0.233588 20.3571C-0.760564 21.2422 1.87101 27.5559 2.51429 27.9099C3.15756 28.323 4.56107 27.9099 4.56107 27.9099C4.56107 27.9099 7.48505 38.7671 15.0289 37.941C22.5143 38.7671 25.4967 27.9099 25.4967 27.9099C25.4967 27.9099 26.9003 28.323 27.5435 27.9099C28.1283 27.5559 30.7599 21.3012 29.7658 20.3571Z" fill="#929292"/>
</svg>
