<svg width="37" height="46" viewBox="0 0 37 46" fill="none" xmlns="http://www.w3.org/2000/svg">
<path d="M36.7123 24.6429C35.4861 23.5714 34.1879 23.5714 34.1879 23.5714C34.1879 23.5714 35.9189 12.5714 32.4569 7.14286C29.067 1.71429 18.4647 0 18.4647 0C18.4647 0 7.93449 1.71429 4.54462 7.14286C1.08264 12.5714 2.81363 23.5714 2.81363 23.5714C2.81363 23.5714 1.58751 23.5714 0.289263 24.6429C-0.936857 25.7143 2.30876 33.3571 3.10213 33.7857C3.8955 34.2857 5.6265 33.7857 5.6265 33.7857C5.6265 33.7857 9.23273 46.9286 18.5368 45.9286C27.7688 46.9286 31.4472 33.7857 31.4472 33.7857C31.4472 33.7857 33.1782 34.2857 33.9715 33.7857C34.6928 33.3571 37.9384 25.7857 36.7123 24.6429Z" fill="black"/>
</svg>
