<svg width="34" height="58" viewBox="0 0 34 58" fill="none" xmlns="http://www.w3.org/2000/svg">
<path d="M10.1833 34.7673C10.1833 34.7673 8.56077 37.3356 6.83992 38.5722C5.11906 39.8088 3.25071 40.4271 1.72652 40.4271C0.202339 40.4271 -0.0434969 39.2381 0.00567036 39.0003C0.0548376 38.7625 7.28242 30.7246 7.28242 30.7246L10.1833 34.7673Z" fill="black"/>
<path d="M12.4937 44.7552C12.4937 44.7552 11.3628 52.4126 11.4611 54.1248C11.5595 55.837 11.9528 57.2162 12.4937 57.5967C13.0345 57.9772 14.1162 58.1199 14.3129 57.5967C14.5587 57.0736 16.5746 45.3735 16.5746 45.3735C16.5746 45.3735 15.542 43.6613 14.0178 44.2321C12.4937 44.7552 12.4937 44.7552 12.4937 44.7552Z" fill="black"/>
<path d="M17.7051 45.3736C17.7051 45.3736 18.1968 53.126 18.2459 54.2675C18.3443 55.409 18.3443 56.3602 18.7868 56.9785C19.2784 57.5968 21.491 58.0724 21.7368 56.9785C21.9826 55.8846 21.7368 45.0406 21.7368 45.0406C21.7368 45.0406 20.6551 43.7565 19.7701 44.0894C18.8851 44.4223 17.7051 45.3736 17.7051 45.3736Z" fill="black"/>
<path d="M22.5234 44.8028C22.5234 44.8028 23.0643 51.7943 23.1626 53.1736C23.2609 54.5528 23.0643 55.5516 23.6543 56.0272C24.1951 56.5029 25.4243 57.5016 26.1126 56.0272C26.801 54.5528 26.1126 45.6589 26.1126 45.6589C26.1126 45.6589 26.2602 44.0894 25.326 44.0418C24.3426 43.9467 22.5234 44.8028 22.5234 44.8028Z" fill="black"/>
<path d="M25.8672 43.2809C25.8672 43.2809 27.1455 48.6077 27.4897 49.7016C27.8339 50.7955 28.1289 50.7955 28.6697 51.0333C29.2106 51.2711 30.2922 50.4626 30.2922 49.226C30.2922 47.9894 29.0139 41.6162 29.0139 41.6162L25.8672 43.2809Z" fill="black"/>
<path d="M12.3471 46.0394L13.0846 35.5759C13.0846 35.5759 11.8063 34.6246 11.0196 34.6722C10.2329 34.7198 10.2329 34.7673 10.2329 34.7673L7.33203 30.7246L15.1005 23.0672C15.1005 23.0672 15.6413 0 15.8871 0C16.133 0 33.5874 0 33.5874 0C33.5874 0 26.999 26.777 26.9498 27.1575C26.8515 27.538 28.3756 35.4808 28.7198 38.5247C29.064 41.6162 29.3098 42.9003 29.3098 42.9003C29.3098 42.9003 26.4089 44.8979 23.2131 45.0406C20.0172 45.1833 12.3471 46.0394 12.3471 46.0394Z" fill="#FFE37E"/>
</svg>
