<svg width="21" height="114" viewBox="0 0 21 114" fill="none" xmlns="http://www.w3.org/2000/svg">
<path d="M20.3714 28.2148V17.6353C19.6157 15.8217 18.5578 14.008 17.4998 12.1944C15.6862 9.02052 14.7794 6.30006 11.001 3.42847C7.97824 1.91711 4.80438 0.708021 1.32825 0.556885C1.02597 1.16143 0.874836 2.06825 0.572564 3.27734C-0.636527 7.66029 0.421427 26.7035 0.572564 30.7841C0.7237 34.8648 4.19984 46.6535 5.10665 51.0364C5.86233 55.4194 6.46688 57.6864 6.31574 61.0114C6.01347 64.3364 4.80438 63.883 5.10665 70.0796C5.25779 76.125 10.3964 96.6796 10.3964 97.7375C10.5476 98.6444 10.5476 103.178 10.2453 104.085C9.94302 104.992 6.61802 109.526 6.16461 110.282C5.7112 110.886 6.01347 111.793 7.07143 112.247C8.12938 112.7 9.94302 113.456 11.1521 113.456C12.3612 113.456 13.7214 112.851 13.7214 112.851C13.7214 112.851 15.0816 114.816 16.593 113.607C18.1044 112.398 17.4998 106.957 17.4998 106.957C17.4998 106.957 17.9532 104.085 18.5578 101.818C19.0112 99.5512 17.1976 94.5637 17.651 84.1353C18.1044 73.7069 16.7441 64.9409 16.7441 64.9409C16.7441 64.9409 17.3487 62.6739 18.4066 58.1398C19.3135 53.4546 20.3714 28.2148 20.3714 28.2148Z" fill="#FFE37F"/>
<path d="M10.5472 99.5511C10.5472 101.214 10.5472 103.481 10.396 104.085C10.0938 104.992 6.76877 109.526 6.31536 110.282C5.86195 110.886 6.16423 111.793 7.22218 112.247C8.28013 112.7 10.0938 113.456 11.3029 113.456C12.512 113.607 13.8722 112.851 13.8722 112.851C13.8722 112.851 15.2324 114.816 16.7438 113.607C18.2551 112.398 17.6506 106.957 17.6506 106.957C17.6506 106.957 18.104 104.085 18.7085 101.818C18.8597 101.214 18.8597 100.609 18.7085 99.7023H10.5472V99.5511Z" fill="black"/>
</svg>
