<svg width="27" height="88" viewBox="0 0 27 88" fill="none" xmlns="http://www.w3.org/2000/svg">
<path d="M26.5679 16.1283C26.1471 10.238 24.8849 4.34763 20.5373 0C19.9763 0.420738 19.2751 0.981722 18.8543 1.40246C14.6469 5.60984 17.0311 12.9026 16.6104 14.1649C16.1897 15.2868 16.3299 32.5371 16.3299 32.5371C16.3299 32.5371 13.6652 40.6714 11.9823 47.5434C10.2993 54.4155 8.47612 63.812 8.47612 63.812C8.47612 63.812 7.63464 64.9339 6.79317 65.4949C5.95169 66.1961 0.201604 74.7512 0.0613577 75.0316C-0.0788884 75.3121 -0.0788884 76.5743 1.18333 76.2939C2.44554 76.0134 4.96997 73.4889 4.96997 73.4889C4.96997 73.4889 4.68948 78.2573 4.96997 81.9037C5.25046 85.5501 6.93341 86.6721 7.4944 87.3733C8.05538 88.0745 9.45784 87.6538 10.4396 87.0928C11.4213 86.5318 11.9823 84.7086 11.9823 84.7086C11.9823 84.7086 12.5433 84.9891 13.3847 84.7086C14.2262 84.4281 14.7872 79.0988 15.3482 75.8731C15.9092 72.6475 15.3482 66.6169 15.3482 66.6169C15.3482 66.6169 19.1348 58.2021 21.3788 54.135C23.6227 50.2081 25.1654 38.8482 25.7264 37.4457C25.8666 36.3237 27.6898 24.4028 26.5679 16.1283Z" fill="black"/>
<path d="M16.19 32.6773C16.19 32.6773 15.3485 35.4823 14.2266 39.1287H25.1658C25.306 38.4274 25.4462 37.8664 25.4462 37.5859C25.867 36.1835 27.6902 24.2626 26.5682 15.9881C26.1475 10.238 24.8853 4.34763 20.5376 0C19.9767 0.420738 19.2754 0.981722 18.8547 1.40246C14.6473 5.60984 17.0315 12.9026 16.6107 14.1649C16.19 15.4271 16.19 32.6773 16.19 32.6773Z" fill="#FFE37F"/>
</svg>
