<svg width="35" height="60" viewBox="0 0 35 60" fill="none" xmlns="http://www.w3.org/2000/svg">
<path d="M10.4317 35.7069C10.4317 35.7069 8.76958 38.3447 7.00675 39.6147C5.24392 40.8847 3.33 41.5197 1.76864 41.5197C0.207275 41.5197 -0.0445578 40.2985 0.00580867 40.0543C0.0561751 39.8101 7.46005 31.5549 7.46005 31.5549L10.4317 35.7069Z" fill="black"/>
<path d="M12.7983 45.9648C12.7983 45.9648 11.6399 53.8292 11.7406 55.5877C11.8413 57.3461 12.2442 58.7627 12.7983 59.1535C13.3523 59.5443 14.4604 59.6908 14.6618 59.1535C14.9137 58.6162 16.9787 46.5998 16.9787 46.5998C16.9787 46.5998 15.921 44.8413 14.3596 45.4275C12.7983 45.9648 12.7983 45.9648 12.7983 45.9648Z" fill="black"/>
<path d="M18.1367 46.5998C18.1367 46.5998 18.6404 54.5619 18.6908 55.7342C18.7915 56.9065 18.7915 57.8835 19.2448 58.5185C19.7485 59.1535 22.015 59.642 22.2668 58.5185C22.5186 57.395 22.2668 46.2579 22.2668 46.2579C22.2668 46.2579 21.1587 44.939 20.2521 45.281C19.3455 45.6229 18.1367 46.5998 18.1367 46.5998Z" fill="black"/>
<path d="M23.0742 46.0137C23.0742 46.0137 23.6282 53.1942 23.729 54.6108C23.8297 56.0273 23.6282 57.0531 24.2326 57.5416C24.7867 58.0301 26.0458 59.0558 26.7509 57.5416C27.4561 56.0273 26.7509 46.893 26.7509 46.893C26.7509 46.893 26.902 45.281 25.9451 45.2322C24.9378 45.1345 23.0742 46.0137 23.0742 46.0137Z" fill="black"/>
<path d="M26.498 44.4505C26.498 44.4505 27.8076 49.9214 28.1601 51.0449C28.5127 52.1683 28.8149 52.1684 29.3689 52.4126C29.9229 52.6568 31.031 51.8264 31.031 50.5564C31.031 49.2864 29.7215 42.7408 29.7215 42.7408L26.498 44.4505Z" fill="black"/>
<path d="M12.6471 47.2837L13.4026 36.5374C13.4026 36.5374 12.0931 35.5605 11.2873 35.6093C10.4814 35.6582 10.4814 35.707 10.4814 35.707L7.50977 31.555L15.4677 23.6907C15.4677 23.6907 16.0217 0 16.2735 0C16.5254 0 34.4055 0 34.4055 0C34.4055 0 27.6564 27.5007 27.606 27.8915C27.5053 28.2823 29.0666 36.4397 29.4192 39.5659C29.7717 42.7409 30.0236 44.0598 30.0236 44.0598C30.0236 44.0598 27.052 46.1114 23.7781 46.2579C20.5043 46.4044 12.6471 47.2837 12.6471 47.2837Z" fill="#FFE37E"/>
<path d="M12.6471 47.2837L13.4026 36.5374C13.4026 36.5374 12.0931 35.5604 11.2872 35.6093C10.4814 35.6581 10.4814 35.707 10.4814 35.707L7.50977 31.555L15.4677 23.6907C15.4677 23.4464 27.7067 27.5007 27.7067 27.5007C27.7067 27.5007 27.7067 27.5007 27.606 27.8915C27.5052 28.2823 29.0666 36.4397 29.4192 39.5659C29.7717 42.7409 30.0236 44.0598 30.0236 44.0598C30.0236 44.0598 27.0519 46.1114 23.7781 46.2579C20.5043 46.4044 12.6471 47.2837 12.6471 47.2837Z" fill="black"/>
</svg>
