<svg width="16" height="90" viewBox="0 0 16 90" fill="none" xmlns="http://www.w3.org/2000/svg">
<path d="M16 21.7229V13.4136C15.4065 11.9892 14.5755 10.5647 13.7446 9.14025C12.3202 6.64746 11.6079 4.51077 8.64032 2.25539C6.26622 1.06834 3.77343 0.118705 1.04322 0C0.805813 0.474818 0.687109 1.18705 0.4497 2.13668C-0.499937 5.57912 0.330995 20.5359 0.4497 23.7409C0.568404 26.9459 3.29861 36.2049 4.01084 39.6473C4.60436 43.0898 5.07918 44.8703 4.96047 47.4818C4.72306 50.0933 3.77343 49.7372 4.01084 54.6041C4.12954 59.3523 8.1655 75.4961 8.1655 76.327C8.2842 77.0393 8.2842 80.6004 8.04679 81.3126C7.80938 82.0249 5.19788 85.586 4.84177 86.1795C4.48566 86.6543 4.72306 87.3666 5.554 87.7227C6.38493 88.0788 7.80938 88.6723 8.75902 88.6723C9.70866 88.6723 10.777 88.1975 10.777 88.1975C10.777 88.1975 11.8453 89.7407 13.0324 88.791C14.2194 87.8414 13.7446 83.568 13.7446 83.568C13.7446 83.568 14.1007 81.3126 14.5755 79.5321C14.9317 77.7515 13.5072 73.8343 13.8633 65.6436C14.2194 57.453 13.1511 50.5681 13.1511 50.5681C13.1511 50.5681 13.6259 48.7876 14.4568 45.2264C15.1691 41.5466 16 21.7229 16 21.7229Z" fill="#929292"/>
</svg>
