<svg width="160" height="71" viewBox="0 0 160 71" fill="none" xmlns="http://www.w3.org/2000/svg">
<path d="M8.11719 54.3125V54.9297H5.88281V60H5.16406V54.3125H8.11719ZM5.73047 56.6289H7.02344C7.375 56.6289 7.67188 56.6992 7.91406 56.8398C8.15885 56.9779 8.34375 57.1719 8.46875 57.4219C8.59635 57.6719 8.66016 57.9648 8.66016 58.3008C8.66016 58.5508 8.6237 58.7799 8.55078 58.9883C8.48047 59.194 8.375 59.3737 8.23438 59.5273C8.09635 59.6784 7.92578 59.7956 7.72266 59.8789C7.51953 59.9596 7.28646 60 7.02344 60H5.16406V54.3125H5.88281V59.3867H7.02344C7.24219 59.3867 7.41797 59.3359 7.55078 59.2344C7.6862 59.1302 7.78516 58.9948 7.84766 58.8281C7.91016 58.6615 7.94141 58.4831 7.94141 58.293C7.94141 58.1029 7.91016 57.9284 7.84766 57.7695C7.78516 57.6107 7.6862 57.4844 7.55078 57.3906C7.41797 57.2943 7.24219 57.2461 7.02344 57.2461H5.73047V56.6289ZM15.8094 54.3125V54.9297H13.6844V54.3125H15.8094ZM16.4422 54.3125V60H15.7234V54.3125H16.4422ZM13.4422 54.3125H14.157L14.0555 57.0977C14.0424 57.4987 14.0177 57.8568 13.9812 58.1719C13.9448 58.4844 13.8927 58.7565 13.825 58.9883C13.7573 59.2174 13.6687 59.4076 13.5594 59.5586C13.45 59.707 13.3159 59.8177 13.157 59.8906C13.0008 59.9635 12.8146 60 12.5984 60H12.4109V59.3867L12.5477 59.375C12.6674 59.3646 12.7703 59.332 12.8562 59.2773C12.9448 59.2201 13.0177 59.1341 13.075 59.0195C13.1349 58.9049 13.1831 58.7565 13.2195 58.5742C13.2586 58.3919 13.2885 58.1693 13.3094 57.9062C13.3302 57.6406 13.3458 57.3307 13.3562 56.9766L13.4422 54.3125ZM22.8258 54.8164L21.2711 60H20.5367L22.3687 54.3125H22.8297L22.8258 54.8164ZM24.0836 60L22.5289 54.8164L22.5211 54.3125H22.9859L24.818 60H24.0836ZM24.0836 57.8945V58.5117H21.3414V57.8945H24.0836ZM31.7914 54.3125V54.9297H29.557V60H28.8383V54.3125H31.7914ZM39.3391 56.6641V57.6523C39.3391 58.0534 39.2948 58.4062 39.2062 58.7109C39.1203 59.013 38.994 59.2656 38.8273 59.4688C38.6607 59.6719 38.4602 59.8242 38.2258 59.9258C37.9914 60.0273 37.7271 60.0781 37.4328 60.0781C37.149 60.0781 36.8898 60.0273 36.6555 59.9258C36.4211 59.8242 36.2193 59.6719 36.05 59.4688C35.8807 59.2656 35.7492 59.013 35.6555 58.7109C35.5643 58.4062 35.5187 58.0534 35.5187 57.6523V56.6641C35.5187 56.263 35.5643 55.9115 35.6555 55.6094C35.7466 55.3047 35.8768 55.0508 36.0461 54.8477C36.2154 54.6445 36.4172 54.4922 36.6516 54.3906C36.8859 54.2865 37.1451 54.2344 37.4289 54.2344C37.7232 54.2344 37.9875 54.2865 38.2219 54.3906C38.4589 54.4922 38.6594 54.6445 38.8234 54.8477C38.9901 55.0508 39.1177 55.3047 39.2062 55.6094C39.2948 55.9115 39.3391 56.263 39.3391 56.6641ZM38.6281 57.6523V56.6562C38.6281 56.3438 38.6021 56.0755 38.55 55.8516C38.4979 55.625 38.4211 55.4401 38.3195 55.2969C38.218 55.1536 38.093 55.0482 37.9445 54.9805C37.7961 54.9102 37.6242 54.875 37.4289 54.875C37.244 54.875 37.0773 54.9102 36.9289 54.9805C36.7831 55.0482 36.6581 55.1536 36.5539 55.2969C36.4497 55.4401 36.369 55.625 36.3117 55.8516C36.257 56.0755 36.2297 56.3438 36.2297 56.6562V57.6523C36.2297 57.9674 36.257 58.2383 36.3117 58.4648C36.369 58.6888 36.4497 58.8737 36.5539 59.0195C36.6607 59.1628 36.7883 59.2695 36.9367 59.3398C37.0852 59.4076 37.2505 59.4414 37.4328 59.4414C37.6281 59.4414 37.8 59.4076 37.9484 59.3398C38.0995 59.2695 38.2245 59.1628 38.3234 59.0195C38.425 58.8737 38.5005 58.6888 38.55 58.4648C38.6021 58.2383 38.6281 57.9674 38.6281 57.6523ZM47.3008 59.3867V60H43.7344V59.3867H47.3008ZM43.8438 59.3867V61.3984H43.1289L43.125 59.3867H43.8438ZM47.9258 59.3867L47.918 61.3945H47.207V59.3867H47.9258ZM46.6289 54.3125V54.9297H44.5664V54.3125H46.6289ZM47.2578 54.3125V60H46.5391V54.3125H47.2578ZM44.3203 54.3125H45.0391L44.9375 56.6016C44.9245 56.9453 44.8984 57.263 44.8594 57.5547C44.8203 57.8438 44.7695 58.1081 44.707 58.3477C44.6471 58.5872 44.5781 58.8021 44.5 58.9922C44.4219 59.1797 44.3372 59.3424 44.2461 59.4805C44.1549 59.6159 44.0586 59.7279 43.957 59.8164C43.8555 59.9023 43.7513 59.9635 43.6445 60H43.3438V59.3867H43.543C43.6003 59.3138 43.6628 59.2083 43.7305 59.0703C43.8008 58.9323 43.8685 58.7539 43.9336 58.5352C44.0013 58.3138 44.0599 58.0443 44.1094 57.7266C44.1615 57.4089 44.1966 57.0339 44.2148 56.6016L44.3203 54.3125ZM52.7508 54.3125V60H52.032V54.3125H52.7508ZM57.9508 58.6953L60.1656 54.3125H60.8844V60H60.1656V55.6133L57.9508 60H57.2359V54.3125H57.9508V58.6953ZM59.6539 52.9023H60.2398C60.2398 53.1055 60.193 53.2865 60.0992 53.4453C60.0055 53.6016 59.8714 53.724 59.6969 53.8125C59.5224 53.901 59.3154 53.9453 59.0758 53.9453C58.7138 53.9453 58.4273 53.849 58.2164 53.6562C58.0081 53.4609 57.9039 53.2096 57.9039 52.9023H58.4898C58.4898 53.056 58.5341 53.1914 58.6227 53.3086C58.7112 53.4258 58.8622 53.4844 59.0758 53.4844C59.2841 53.4844 59.4326 53.4258 59.5211 53.3086C59.6096 53.1914 59.6539 53.056 59.6539 52.9023ZM68.4477 56.7578V57.3711H65.9828V56.7578H68.4477ZM66.0805 54.3125V60H65.3617V54.3125H66.0805ZM69.0844 54.3125V60H68.3656V54.3125H69.0844ZM74.2727 58.6953L76.4875 54.3125H77.2063V60H76.4875V55.6133L74.2727 60H73.5578V54.3125H74.2727V58.6953ZM82.4336 58.6953L84.6484 54.3125H85.3672V60H84.6484V55.6133L82.4336 60H81.7188V54.3125H82.4336V58.6953ZM84.1367 52.9023H84.7227C84.7227 53.1055 84.6758 53.2865 84.582 53.4453C84.4883 53.6016 84.3542 53.724 84.1797 53.8125C84.0052 53.901 83.7982 53.9453 83.5586 53.9453C83.1966 53.9453 82.9102 53.849 82.6992 53.6562C82.4909 53.4609 82.3867 53.2096 82.3867 52.9023H82.9727C82.9727 53.056 83.0169 53.1914 83.1055 53.3086C83.194 53.4258 83.3451 53.4844 83.5586 53.4844C83.7669 53.4844 83.9154 53.4258 84.0039 53.3086C84.0924 53.1914 84.1367 53.056 84.1367 52.9023ZM96.5563 54.8789H97.4273C97.6956 54.8789 97.9469 54.9349 98.1813 55.0469C98.4156 55.1562 98.6214 55.3125 98.7984 55.5156C98.9755 55.7188 99.1135 55.9609 99.2125 56.2422C99.3115 56.5208 99.3609 56.8294 99.3609 57.168C99.3609 57.5065 99.3115 57.8164 99.2125 58.0977C99.1135 58.3789 98.9755 58.6224 98.7984 58.8281C98.6214 59.0312 98.4156 59.1888 98.1813 59.3008C97.9469 59.4102 97.6956 59.4648 97.4273 59.4648H96.5563C96.288 59.4648 96.0367 59.4102 95.8023 59.3008C95.5706 59.1888 95.3661 59.0312 95.1891 58.8281C95.012 58.625 94.874 58.3841 94.775 58.1055C94.676 57.8242 94.6266 57.5143 94.6266 57.1758C94.6266 56.8372 94.676 56.5286 94.775 56.25C94.874 55.9688 95.012 55.7266 95.1891 55.5234C95.3661 55.3177 95.5706 55.1589 95.8023 55.0469C96.0367 54.9349 96.288 54.8789 96.5563 54.8789ZM96.5563 55.4727C96.288 55.4727 96.0602 55.5443 95.8727 55.6875C95.6878 55.8281 95.5471 56.026 95.4508 56.2812C95.357 56.5365 95.3102 56.8346 95.3102 57.1758C95.3102 57.4336 95.3362 57.6667 95.3883 57.875C95.443 58.0833 95.5224 58.2617 95.6266 58.4102C95.7333 58.5586 95.8635 58.6732 96.0172 58.7539C96.1734 58.8346 96.3531 58.875 96.5563 58.875H97.4352C97.7034 58.875 97.9286 58.8047 98.1109 58.6641C98.2958 58.5208 98.4365 58.3216 98.5328 58.0664C98.6292 57.8086 98.6773 57.5091 98.6773 57.168C98.6773 56.9128 98.65 56.681 98.5953 56.4727C98.5406 56.2643 98.4599 56.0859 98.3531 55.9375C98.249 55.7891 98.1201 55.6745 97.9664 55.5938C97.8128 55.513 97.6357 55.4727 97.4352 55.4727H96.5563ZM97.3414 54.0781V60.2344H96.6539V54.0781H97.3414ZM107.202 56.6641V57.6523C107.202 58.0534 107.157 58.4062 107.069 58.7109C106.983 59.013 106.857 59.2656 106.69 59.4688C106.523 59.6719 106.323 59.8242 106.088 59.9258C105.854 60.0273 105.59 60.0781 105.295 60.0781C105.011 60.0781 104.752 60.0273 104.518 59.9258C104.284 59.8242 104.082 59.6719 103.912 59.4688C103.743 59.2656 103.612 59.013 103.518 58.7109C103.427 58.4062 103.381 58.0534 103.381 57.6523V56.6641C103.381 56.263 103.427 55.9115 103.518 55.6094C103.609 55.3047 103.739 55.0508 103.909 54.8477C104.078 54.6445 104.28 54.4922 104.514 54.3906C104.748 54.2865 105.008 54.2344 105.291 54.2344C105.586 54.2344 105.85 54.2865 106.084 54.3906C106.321 54.4922 106.522 54.6445 106.686 54.8477C106.853 55.0508 106.98 55.3047 107.069 55.6094C107.157 55.9115 107.202 56.263 107.202 56.6641ZM106.491 57.6523V56.6562C106.491 56.3438 106.465 56.0755 106.412 55.8516C106.36 55.625 106.284 55.4401 106.182 55.2969C106.08 55.1536 105.955 55.0482 105.807 54.9805C105.659 54.9102 105.487 54.875 105.291 54.875C105.107 54.875 104.94 54.9102 104.791 54.9805C104.646 55.0482 104.521 55.1536 104.416 55.2969C104.312 55.4401 104.232 55.625 104.174 55.8516C104.12 56.0755 104.092 56.3438 104.092 56.6562V57.6523C104.092 57.9674 104.12 58.2383 104.174 58.4648C104.232 58.6888 104.312 58.8737 104.416 59.0195C104.523 59.1628 104.651 59.2695 104.799 59.3398C104.948 59.4076 105.113 59.4414 105.295 59.4414C105.491 59.4414 105.662 59.4076 105.811 59.3398C105.962 59.2695 106.087 59.1628 106.186 59.0195C106.287 58.8737 106.363 58.6888 106.412 58.4648C106.465 58.2383 106.491 57.9674 106.491 57.6523ZM114.601 56.7578V57.3711H112.136V56.7578H114.601ZM112.234 54.3125V60H111.515V54.3125H112.234ZM115.238 54.3125V60H114.519V54.3125H115.238ZM123.543 59.3867V60H119.977V59.3867H123.543ZM120.086 59.3867V61.3984H119.371L119.367 59.3867H120.086ZM124.168 59.3867L124.16 61.3945H123.449V59.3867H124.168ZM122.871 54.3125V54.9297H120.809V54.3125H122.871ZM123.5 54.3125V60H122.781V54.3125H123.5ZM120.562 54.3125H121.281L121.18 56.6016C121.167 56.9453 121.141 57.263 121.102 57.5547C121.062 57.8438 121.012 58.1081 120.949 58.3477C120.889 58.5872 120.82 58.8021 120.742 58.9922C120.664 59.1797 120.579 59.3424 120.488 59.4805C120.397 59.6159 120.301 59.7279 120.199 59.8164C120.098 59.9023 119.993 59.9635 119.887 60H119.586V59.3867H119.785C119.842 59.3138 119.905 59.2083 119.973 59.0703C120.043 58.9323 120.111 58.7539 120.176 58.5352C120.243 58.3138 120.302 58.0443 120.352 57.7266C120.404 57.4089 120.439 57.0339 120.457 56.6016L120.562 54.3125Z" fill="white"/>
<path d="M22.1789 12.02H14.7793V19.4071H22.1789V12.02Z" fill="white"/>
<path d="M22.1789 19.4072H14.7793V26.7943H22.1789V19.4072Z" fill="white"/>
<path d="M22.1789 26.7744H14.7793V34.1615H22.1789V26.7744Z" fill="white"/>
<path d="M22.1789 34.1616H14.7793V41.5487H22.1789V34.1616Z" fill="white"/>
<path d="M22.1789 41.5483H14.7793V48.9354H22.1789V41.5483Z" fill="white"/>
<path d="M7.39965 19.4072H0V26.7943H7.39965V19.4072Z" fill="white"/>
<path d="M7.39965 19.4071H0L7.39965 12.02V19.4071Z" fill="white"/>
<path d="M7.39965 26.7744H0V34.1615H7.39965V26.7744Z" fill="white"/>
<path d="M7.39965 34.1616H0V41.5487H7.39965V34.1616Z" fill="white"/>
<path d="M7.39965 41.5483H0V48.9354H7.39965V41.5483Z" fill="white"/>
<path d="M14.8 12.02H7.40039V19.4071H14.8V12.02Z" fill="white"/>
<path d="M48.7786 12.02H41.3789V19.4071H48.7786V12.02Z" fill="white"/>
<path d="M48.7786 19.4072H41.3789V26.7943H48.7786V19.4072Z" fill="white"/>
<path d="M48.7786 26.7744H41.3789V34.1615H48.7786V26.7744Z" fill="white"/>
<path d="M48.7786 34.1616H41.3789V41.5487H48.7786V34.1616Z" fill="white"/>
<path d="M33.9993 19.4072H26.5996V26.7943H33.9993V19.4072Z" fill="white"/>
<path d="M33.9993 19.4071H26.5996L33.9993 12.02V19.4071Z" fill="white"/>
<path d="M33.9993 26.7744H26.5996V34.1615H33.9993V26.7744Z" fill="white"/>
<path d="M41.3997 34.1616H34V41.5487H41.3997V34.1616Z" fill="white"/>
<path d="M33.9993 34.1616H26.5996V41.5487H33.9993V34.1616Z" fill="white"/>
<path d="M48.7786 41.5483H41.3789V48.9354H48.7786V41.5483Z" fill="white"/>
<path d="M33.9993 41.5483H26.5996V48.9354H33.9993V41.5483Z" fill="white"/>
<path d="M41.3997 12.02H34V19.4071H41.3997V12.02Z" fill="white"/>
<path d="M102.179 12.02H94.7793V19.4071H102.179V12.02Z" fill="white"/>
<path d="M102.179 19.4072H94.7793V26.7943H102.179V19.4072Z" fill="white"/>
<path d="M102.179 26.7744H94.7793V34.1615H102.179V26.7744Z" fill="white"/>
<path d="M102.179 34.1616H94.7793V41.5487H102.179V34.1616Z" fill="white"/>
<path d="M87.3997 19.4072H80V26.7943H87.3997V19.4072Z" fill="white"/>
<path d="M87.3997 19.4071H80L87.3997 12.02V19.4071Z" fill="white"/>
<path d="M87.3997 26.7744H80V34.1615H87.3997V26.7744Z" fill="white"/>
<path d="M94.8 34.1616H87.4004V41.5487H94.8V34.1616Z" fill="white"/>
<path d="M87.3997 34.1616H80V41.5487H87.3997V34.1616Z" fill="white"/>
<path d="M102.179 41.5483H94.7793V48.9354H102.179V41.5483Z" fill="white"/>
<path d="M87.3997 41.5483H80V48.9354H87.3997V41.5483Z" fill="white"/>
<path d="M94.8 12.02H87.4004V19.4071H94.8V12.02Z" fill="white"/>
<path d="M128.575 12.02H121.176V19.4071H128.575V12.02Z" fill="white"/>
<path d="M128.575 19.4072H121.176V26.7943H128.575V19.4072Z" fill="white"/>
<path d="M128.575 26.7744H121.176V34.1615H128.575V26.7744Z" fill="white"/>
<path d="M113.796 12.02H106.396V19.4071H113.796V12.02Z" fill="white"/>
<path d="M113.796 19.4072H106.396V26.7943H113.796V19.4072Z" fill="white"/>
<path d="M113.796 26.7744H106.396V34.1615H113.796V26.7744Z" fill="white"/>
<path d="M121.197 34.1616H113.797V41.5487H121.197V34.1616Z" fill="white"/>
<path d="M121.176 41.5487V34.1616H128.575L121.176 41.5487Z" fill="white"/>
<path d="M113.796 34.1616H106.396V41.5487H113.796V34.1616Z" fill="white"/>
<path d="M113.796 41.5483H106.396V48.9354H113.796V41.5483Z" fill="white"/>
<path d="M121.197 12.02H113.797V19.4071H121.197V12.02Z" fill="white"/>
<path d="M75.3782 19.4072H67.9785V26.7943H75.3782V19.4072Z" fill="white"/>
<path d="M75.3782 12.02H67.9785V19.4071H75.3782V12.02Z" fill="white"/>
<path d="M75.3782 34.1616H67.9785V41.5487H75.3782V34.1616Z" fill="white"/>
<path d="M75.3782 41.5483H67.9785V48.9354H75.3782V41.5483Z" fill="white"/>
<path d="M60.5989 12.02H53.1992V19.4071H60.5989V12.02Z" fill="white"/>
<path d="M67.9993 26.7744H60.5996V34.1615H67.9993V26.7744Z" fill="white"/>
<path d="M60.5989 41.5483H53.1992V48.9354H60.5989V41.5483Z" fill="white"/>
<path d="M67.9993 41.5483H60.5996V48.9354H67.9993V41.5483Z" fill="white"/>
<path d="M67.9993 12.02H60.5996V19.4071H67.9993V12.02Z" fill="white"/>
<path d="M160 0L142.5 17.6477V25.3238L160 7.63854V0Z" fill="#1077EA"/>
<path d="M160 7.71387L142.5 25.3615V33.0001L160 15.3524V7.71387Z" fill="#FFDF00"/>
<path d="M125 0L142.5 17.6477V25.3238L125 7.63854V0Z" fill="#1077EA"/>
<path d="M125 7.71387L142.5 25.3615V33.0001L125 15.3524V7.71387Z" fill="#FFDF00"/>
</svg>
