<svg width="21" height="114" viewBox="0 0 21 114" fill="none" xmlns="http://www.w3.org/2000/svg">
<path d="M20.3714 27.6579V17.0784C19.6157 15.2648 18.5578 13.4511 17.4998 11.6375C15.6862 8.46363 14.7794 5.74318 11.001 2.87159C7.97824 1.36023 4.80438 0.151136 1.32825 0C1.02597 0.604545 0.874836 1.51136 0.572564 2.72045C-0.636527 7.10341 0.421427 26.1466 0.572564 30.2273C0.7237 34.3079 4.19984 46.0966 5.10665 50.4795C5.86233 54.8625 6.46688 57.1295 6.31574 60.4545C6.01347 63.7795 4.80438 63.3261 5.10665 69.5227C5.25779 75.5682 10.3964 96.1227 10.3964 97.1806C10.5476 98.0875 10.5476 102.622 10.2453 103.528C9.94302 104.435 6.61802 108.969 6.16461 109.725C5.7112 110.329 6.01347 111.236 7.07142 111.69C8.12938 112.143 9.94302 112.899 11.1521 112.899C12.3612 112.899 13.7214 112.294 13.7214 112.294C13.7214 112.294 15.0816 114.259 16.593 113.05C18.1044 111.841 17.4998 106.4 17.4998 106.4C17.4998 106.4 17.9532 103.528 18.5578 101.261C19.0112 98.9943 17.1976 94.0068 17.651 83.5784C18.1044 73.15 16.7442 64.3841 16.7442 64.3841C16.7442 64.3841 17.3487 62.117 18.4066 57.5829C19.3135 52.8977 20.3714 27.6579 20.3714 27.6579Z" fill="#FFE37F"/>
<path d="M17.4999 83.5785C17.9533 73.1501 16.5931 64.3841 16.5931 64.3841C16.5931 64.3841 17.1976 62.1171 18.2556 57.583C18.4067 56.9785 18.5578 55.9205 18.709 54.7114H5.86238C6.16465 56.6762 6.46693 58.3387 6.31579 60.4546C6.01352 63.7796 4.80443 63.3262 5.1067 69.5228C5.25784 75.5682 10.3965 96.1228 10.3965 97.1807C10.5476 98.0876 10.5476 102.622 10.2453 103.528C9.94306 104.435 6.61806 108.969 6.16465 109.725C5.71125 110.33 6.01352 111.236 7.07147 111.69C8.12943 112.143 9.94306 112.899 11.1522 112.899C12.3612 113.05 13.7215 112.294 13.7215 112.294C13.7215 112.294 15.0817 114.259 16.5931 113.05C18.1044 111.841 17.4999 106.4 17.4999 106.4C17.4999 106.4 17.9533 103.528 18.5578 101.261C19.0112 98.9944 17.1976 93.8557 17.4999 83.5785Z" fill="black"/>
</svg>
