<svg width="40" height="40" viewBox="0 0 40 40" fill="none" xmlns="http://www.w3.org/2000/svg">
<g clip-path="url(#clip0_198_573)">
<path d="M20.0384 40.0768C31.1053 40.0768 40.0768 31.1053 40.0768 20.0384C40.0768 8.97149 31.1053 0 20.0384 0C8.97149 0 0 8.97149 0 20.0384C0 31.1053 8.97149 40.0768 20.0384 40.0768Z" fill="black"/>
<path d="M18.5019 23.57C18.5019 22.3416 18.6555 21.4203 18.8858 20.7293C19.1161 20.0383 19.5768 19.3474 20.191 18.7331C20.8052 18.0422 21.2658 17.428 21.4962 16.9673C21.7265 16.5067 21.8033 16.046 21.8033 15.5854C21.8033 14.1266 21.3426 13.4356 20.4213 13.4356C20.0374 13.4356 19.6535 13.666 19.4232 14.0498C19.1161 14.4337 19.0393 14.9711 18.9626 15.6621H15.2773C15.2773 13.9731 15.738 12.6679 16.6593 11.7466C17.5806 10.8253 18.809 10.3646 20.4213 10.3646C22.0336 10.3646 23.262 10.8253 24.1833 11.6698C25.1046 12.5911 25.4885 13.8195 25.4885 15.4318C25.4885 16.737 24.951 18.0422 23.8762 19.3474L22.8013 20.5758C22.4175 20.9596 22.1871 21.4203 22.0336 21.8809C21.88 22.3416 21.8033 22.9558 21.8033 23.6468H18.5019V23.57ZM18.1948 27.4855C18.1948 26.8713 18.3484 26.4107 18.7322 26.0268C19.1161 25.6429 19.5768 25.4894 20.191 25.4894C20.8052 25.4894 21.2658 25.6429 21.6497 26.0268C22.0336 26.4107 22.1871 26.8713 22.1871 27.4855C22.1871 28.023 22.0336 28.5604 21.6497 28.9443C21.2658 29.3282 20.8052 29.4817 20.191 29.4817C19.5768 29.4817 19.1161 29.3282 18.7322 28.9443C18.3484 28.5604 18.1948 28.0997 18.1948 27.4855Z" fill="white"/>
</g>
<defs>
<clipPath id="clip0_198_573">
<rect width="40" height="40" fill="white"/>
</clipPath>
</defs>
</svg>
