<svg width="38" height="38" viewBox="0 0 38 38" fill="none" xmlns="http://www.w3.org/2000/svg">
<g clip-path="url(#clip0_198_577)">
<path d="M19.0365 38.0729C29.55 38.0729 38.0729 29.55 38.0729 19.0365C38.0729 8.52292 29.55 0 19.0365 0C8.52292 0 0 8.52292 0 19.0365C0 29.55 8.52292 38.0729 19.0365 38.0729Z" fill="#929292"/>
<path d="M17.577 22.3915C17.577 21.2246 17.7229 20.3493 17.9417 19.6929C18.1605 19.0365 18.5981 18.38 19.1816 17.7965C19.7651 17.1401 20.2027 16.5566 20.4215 16.119C20.6404 15.6814 20.7133 15.2437 20.7133 14.8061C20.7133 13.4203 20.2757 12.7639 19.4004 12.7639C19.0357 12.7639 18.6711 12.9827 18.4523 13.3474C18.1605 13.7121 18.0876 14.2226 18.0146 14.8791H14.5137C14.5137 13.2745 14.9513 12.0345 15.8265 11.1593C16.7018 10.2841 17.8688 9.84644 19.4004 9.84644C20.9321 9.84644 22.0991 10.2841 22.9743 11.0864C23.8496 11.9616 24.2143 13.1286 24.2143 14.6603C24.2143 15.9002 23.7037 17.1401 22.6826 18.38L21.6615 19.547C21.2968 19.9117 21.078 20.3493 20.9321 20.7869C20.7862 21.2246 20.7133 21.808 20.7133 22.4645H17.577V22.3915ZM17.2853 26.1113C17.2853 25.5278 17.4311 25.0902 17.7958 24.7255C18.1605 24.3608 18.5981 24.215 19.1816 24.215C19.7651 24.215 20.2027 24.3608 20.5674 24.7255C20.9321 25.0902 21.078 25.5278 21.078 26.1113C21.078 26.6219 20.9321 27.1324 20.5674 27.4971C20.2027 27.8618 19.7651 28.0077 19.1816 28.0077C18.5981 28.0077 18.1605 27.8618 17.7958 27.4971C17.4311 27.1324 17.2853 26.6948 17.2853 26.1113Z" fill="white"/>
</g>
<defs>
<clipPath id="clip0_198_577">
<rect width="38" height="38" fill="white"/>
</clipPath>
</defs>
</svg>
