<svg width="27" height="88" viewBox="0 0 27 88" fill="none" xmlns="http://www.w3.org/2000/svg">
<path d="M26.6359 16.176C26.2141 10.2682 24.9487 4.36048 20.5899 0C20.0275 0.421982 19.3245 0.984625 18.9026 1.40661C14.6845 5.62643 17.0748 12.9408 16.653 14.2067C16.2311 15.332 16.3717 32.6333 16.3717 32.6333C16.3717 32.6333 13.7002 40.7916 12.013 47.684C10.3257 54.5763 8.49784 64.0006 8.49784 64.0006C8.49784 64.0006 7.65421 65.1259 6.81058 65.6885C5.96694 66.3918 0.20212 74.9721 0.0615149 75.2534C-0.0790906 75.5348 -0.0790905 76.8007 1.18636 76.5194C2.45181 76.2381 4.9827 73.7062 4.9827 73.7062C4.9827 73.7062 4.70149 78.4887 4.9827 82.1458C5.26392 85.803 6.95118 86.9283 7.5136 87.6316C8.07602 88.3349 9.48208 87.9129 10.4663 87.3503C11.4506 86.7876 12.013 84.959 12.013 84.959C12.013 84.959 12.5754 85.2404 13.419 84.959C14.2627 84.6777 14.8251 79.3326 15.3875 76.0974C15.9499 72.8622 15.3875 66.8138 15.3875 66.8138C15.3875 66.8138 19.1839 58.3742 21.4335 54.295C23.6832 50.3565 25.2299 38.963 25.7923 37.5564C25.9329 36.4311 27.7608 24.475 26.6359 16.176Z" fill="#929292"/>
</svg>
